# xmcd
# 
# Track frame offsets:
#     150
#     15046
#     31712
#     48898
#     65344
#     88281
#     110639
#     126574
#     142424
#     163122
#     181661
#     202506
#     220091
# 
# Disc length: 3262
# 
# Revision: 1
# Processed by: cddbd v1.5.2PL0 Copyright (c) Steve Scherf et al.
# Submitted via: fre:ac v1.1beta1pre4
# 
DISCID=ac0cbc0d
DTITLE=Infamous Stringdusters - Laws Of Gravity
DYEAR=2017
DGENRE=Bluegrass
TTITLE0=Freedom
TTITLE1=Gravity
TTITLE2=A Hard Life Makes a Good Song
TTITLE3=Vertigo
TTITLE4=Maxwell
TTITLE5=Black Elk
TTITLE6=This Ol' Building
TTITLE7=Soul Searching
TTITLE8=1901: A Canyon Odyssey
TTITLE9=Sirens
TTITLE10=Back Home
TTITLE11=Let Me Know
TTITLE12=I Run to You
EXTD=
EXTT0=
EXTT1=
EXTT2=
EXTT3=
EXTT4=
EXTT5=
EXTT6=
EXTT7=
EXTT8=
EXTT9=
EXTT10=
EXTT11=
EXTT12=
PLAYORDER=
